Coordinates
version=1
nRows=8
nColumns=63
inDegrees=yes

Units are S.I. units (second, meters, Newtons, ...)
If the header above contains a line with 'inDegrees', this indicates whether rotational values are in degrees (yes) or radians (no).

endheader
time	pelvis_tilt	pelvis_list	pelvis_rotation	pelvis_tx	pelvis_ty	pelvis_tz	hip_flexion_r	hip_adduction_r	hip_rotation_r	knee_angle_r	knee_angle_r_beta	ankle_angle_r	subtalar_angle_r	mtp_angle_r	hip_flexion_l	hip_adduction_l	hip_rotation_l	knee_angle_l	knee_angle_l_beta	ankle_angle_l	subtalar_angle_l	mtp_angle_l	L5_S1_Flex_Ext	L5_S1_Lat_Bending	L5_S1_axial_rotation	L4_L5_Flex_Ext	L4_L5_Lat_Bending	L4_L5_axial_rotation	L3_L4_Flex_Ext	L3_L4_Lat_Bending	L3_L4_axial_rotation	L2_L3_Flex_Ext	L2_L3_Lat_Bending	L2_L3_axial_rotation	L1_L2_Flex_Ext	L1_L2_Lat_Bending	L1_L2_axial_rotation	L1_T12_Flex_Ext	L1_T12_Lat_Bending	L1_T12_axial_rotation	Abs_r3	Abs_r2	Abs_r1	Abs_t1	Abs_t2	neck_flexion	neck_bending	neck_rotation	arm_flex_r	arm_add_r	arm_rot_r	elbow_flex_r	pro_sup_r	wrist_flex_r	wrist_dev_r	arm_flex_l	arm_add_l	arm_rot_l	elbow_flex_l	pro_sup_l	wrist_flex_l	wrist_dev_l
0.000000	5.925198	-1.726512	106.824634	0.244722	0.861389	0.637582	-1.720872	7.251924	-25.149328	6.688721	0.116740	29.444709	3.989001	0.000000	-2.328225	-7.756934	34.294946	1.066660	0.018617	26.700130	-15.904508	0.000000	-0.025943	1.171730	-2.843541	-0.048178	1.558401	-3.021262	-0.042621	2.848945	-3.021262	-0.029650	2.848945	-2.488098	-0.024090	2.389393	-2.310377	-0.014824	1.815010	-2.132656	-0.185306	13.254849	-15.814922	0.000000	0.000000	18.076161	-2.005880	0.544224	10.447400	-12.751971	78.901850	35.274845	94.097693	-15.880328	0.900755	14.467196	0.549186	72.978547	31.074028	83.277896	6.987407	3.006004
0.016667	5.873315	-2.387219	105.558475	0.245675	0.861139	0.639497	-0.500681	6.729887	-24.438516	7.421686	0.129533	30.577300	4.561215	0.000000	-1.759548	-7.387774	32.713464	1.146153	0.020004	27.522944	-15.820528	0.000000	-0.012914	1.174991	-2.636319	-0.023983	1.562739	-2.801089	-0.021217	2.856874	-2.801089	-0.014760	2.856874	-2.306779	-0.011992	2.396042	-2.142009	-0.007379	1.820062	-1.977239	-0.092245	13.291738	-14.662416	0.000000	0.000000	18.825306	-2.108420	1.147908	10.014883	-12.639317	75.688658	35.126912	86.642022	-11.096990	1.376347	14.319650	0.707187	70.768716	31.392573	81.306584	7.245987	4.633561
0.033333	5.825600	-2.920137	104.553381	0.246415	0.860924	0.640948	0.472207	6.309551	-23.804373	8.020750	0.139988	31.456226	4.930334	0.000000	-1.305127	-7.086909	31.486275	1.200992	0.020961	28.173976	-15.748667	0.000000	-0.002105	1.177850	-2.479631	-0.003908	1.566540	-2.634608	-0.003458	2.863824	-2.634608	-0.002405	2.863824	-2.169677	-0.001954	2.401871	-2.014700	-0.001203	1.824489	-1.859723	-0.015033	13.324073	-13.790962	0.000000	0.000000	19.439361	-2.153101	1.726357	9.686973	-12.548099	73.131799	35.026698	80.862988	-7.306422	1.728018	14.196595	0.824094	69.012371	31.652675	79.982895	7.465900	5.951865
0.050000	5.781444	-3.334883	103.787304	0.246961	0.860743	0.641971	1.217629	5.982247	-23.243216	8.495679	0.148278	32.106466	5.116992	0.000000	-0.956536	-6.848618	30.579589	1.233450	0.021528	28.670991	-15.686537	0.000000	0.006677	1.180259	-2.368889	0.012400	1.569745	-2.516945	0.010970	2.869682	-2.516945	0.007631	2.869682	-2.072778	0.006200	2.406785	-1.924723	0.003815	1.828222	-1.776667	0.047694	13.351329	-13.175053	0.000000	0.000000	19.927507	-2.146536	2.276180	9.451963	-12.477094	71.170364	34.969445	76.603401	-4.421006	1.967785	14.093237	0.904368	67.662158	31.859831	79.229187	7.650893	6.984758
0.066667	5.740239	-3.641077	103.238196	0.247331	0.860596	0.642602	1.755425	5.739306	-22.751364	8.856240	0.154571	32.552998	5.141818	0.000000	-0.705349	-6.667178	29.959615	1.245800	0.021743	29.031755	-15.631753	0.000000	0.013621	1.182173	-2.299509	0.025296	1.572291	-2.443229	0.022378	2.874336	-2.443229	0.015567	2.874336	-2.012071	0.012648	2.410688	-1.868351	0.007783	1.831187	-1.724632	0.097294	13.372982	-12.789180	0.000000	0.000000	20.298930	-2.095335	2.793988	9.298143	-12.425083	69.743442	34.950394	73.706069	-2.353122	2.107661	14.004778	0.952472	66.670725	32.019538	78.967819	7.804716	7.756083
0.083333	5.701377	-3.848337	102.884008	0.247545	0.860481	0.642878	2.105432	5.572059	-22.325138	9.112200	0.159038	32.820802	5.025447	0.000000	-0.543139	-6.536868	29.592563	1.240314	0.021648	29.274036	-15.581925	0.000000	0.018918	1.183546	-2.266904	0.035132	1.574116	-2.408585	0.031080	2.877673	-2.408585	0.021621	2.877673	-1.983541	0.017567	2.413487	-1.841859	0.010810	1.833312	-1.700178	0.135129	13.388507	-12.607838	0.000000	0.000000	20.562813	-2.006110	3.276391	9.213807	-12.390843	68.790126	34.964787	72.013803	-1.015152	2.159663	13.926425	0.972870	65.990717	32.137293	79.121149	7.931114	8.289683
0.100000	5.664250	-3.966280	102.702694	0.247622	0.860396	0.642836	2.287490	5.471836	-21.960855	9.273326	0.161850	32.934857	4.788508	0.000000	-0.461480	-6.451965	29.444642	1.219264	0.021280	29.415598	-15.534668	0.000000	0.022758	1.184330	-2.266486	0.042264	1.575159	-2.408142	0.037389	2.879580	-2.408142	0.026010	2.879580	-1.983176	0.021133	2.415086	-1.841520	0.013004	1.834527	-1.699865	0.162559	13.397379	-12.605518	0.000000	0.000000	20.728339	-1.885471	3.720000	9.187244	-12.373154	68.249506	35.007864	71.369411	-0.319477	2.135807	13.853382	0.970021	65.574782	32.218594	79.611534	8.033838	8.609400
0.116667	5.628249	-4.004524	102.672204	0.247580	0.860340	0.642512	2.321437	5.429968	-21.654835	9.349385	0.163178	32.920141	4.451634	0.000000	-0.451946	-6.406749	29.482061	1.184922	0.020681	29.474208	-15.487593	0.000000	0.025332	1.184480	-2.293672	0.047044	1.575358	-2.437026	0.041618	2.879945	-2.437026	0.028952	2.879945	-2.006963	0.023523	2.415391	-1.863608	0.014475	1.834759	-1.720254	0.180945	13.399074	-12.756713	0.000000	0.000000	20.804692	-1.740029	4.121423	9.206748	-12.370794	68.060673	35.074867	71.615704	-0.178478	2.048108	13.780853	0.948391	65.375566	32.268937	80.361334	8.116633	8.739077
